<?xml version="1.0" encoding="UTF-8"?>
<!DOCTYPE svg PUBLIC "-//W3C//DTD SVG 1.1//EN" "http://www.w3.org/Graphics/SVG/1.1/DTD/svg11.dtd">
<svg width="160mm" height="90mm" viewBox="0 0 16000 9000" version="1.1" xmlns="http://www.w3.org/2000/svg" stroke-width="28.222" stroke-linejoin="round" xml:space="preserve">
 <path fill="rgb(255,255,255)" stroke="none" d="M 8000,8999 L 0,8999 0,0 15999,0 15999,8999 8000,8999 Z"/>
 <path fill="none" stroke="rgb(179,179,179)" stroke-linejoin="round" d="M 8521,7191 L 1550,7191 1550,1275 15492,1275 15492,7191 8521,7191 Z"/>
 <path fill="none" stroke="rgb(179,179,179)" stroke-linejoin="round" d="M 1550,1273 L 1550,7190"/>
 <path fill="none" stroke="rgb(179,179,179)" stroke-linejoin="round" d="M 3292,1273 L 3292,7190"/>
 <path fill="none" stroke="rgb(179,179,179)" stroke-linejoin="round" d="M 5035,1273 L 5035,7190"/>
 <path fill="none" stroke="rgb(179,179,179)" stroke-linejoin="round" d="M 6778,1273 L 6778,7190"/>
 <path fill="none" stroke="rgb(179,179,179)" stroke-linejoin="round" d="M 8520,1273 L 8520,7190"/>
 <path fill="none" stroke="rgb(179,179,179)" stroke-linejoin="round" d="M 10263,1273 L 10263,7190"/>
 <path fill="none" stroke="rgb(179,179,179)" stroke-linejoin="round" d="M 12006,1273 L 12006,7190"/>
 <path fill="none" stroke="rgb(179,179,179)" stroke-linejoin="round" d="M 13749,1273 L 13749,7190"/>
 <path fill="none" stroke="rgb(179,179,179)" stroke-linejoin="round" d="M 15492,1273 L 15492,7190"/>
 <path fill="none" stroke="rgb(179,179,179)" stroke-linejoin="round" d="M 1400,7190 L 1550,7190"/>
 <path fill="none" stroke="rgb(179,179,179)" stroke-linejoin="round" d="M 1400,7190 L 1550,7190"/>
 <path fill="none" stroke="rgb(179,179,179)" stroke-linejoin="round" d="M 1400,6006 L 1550,6006"/>
 <path fill="none" stroke="rgb(179,179,179)" stroke-linejoin="round" d="M 1400,6006 L 1550,6006"/>
 <path fill="none" stroke="rgb(179,179,179)" stroke-linejoin="round" d="M 1400,4823 L 1550,4823"/>
 <path fill="none" stroke="rgb(179,179,179)" stroke-linejoin="round" d="M 1400,4823 L 1550,4823"/>
 <path fill="none" stroke="rgb(179,179,179)" stroke-linejoin="round" d="M 1400,3640 L 1550,3640"/>
 <path fill="none" stroke="rgb(179,179,179)" stroke-linejoin="round" d="M 1400,3640 L 1550,3640"/>
 <path fill="none" stroke="rgb(179,179,179)" stroke-linejoin="round" d="M 1400,2457 L 1550,2457"/>
 <path fill="none" stroke="rgb(179,179,179)" stroke-linejoin="round" d="M 1400,2457 L 1550,2457"/>
 <path fill="none" stroke="rgb(179,179,179)" stroke-linejoin="round" d="M 1400,1273 L 1550,1273"/>
 <path fill="none" stroke="rgb(179,179,179)" stroke-linejoin="round" d="M 1400,1273 L 1550,1273"/>
 <path fill="none" stroke="rgb(179,179,179)" stroke-linejoin="round" d="M 1550,7190 L 1550,1273"/>
 <path fill="none" stroke="rgb(179,179,179)" stroke-linejoin="round" d="M 1550,7340 L 1550,7190"/>
 <path fill="none" stroke="rgb(179,179,179)" stroke-linejoin="round" d="M 1550,7340 L 1550,7190"/>
 <path fill="none" stroke="rgb(179,179,179)" stroke-linejoin="round" d="M 3292,7340 L 3292,7190"/>
 <path fill="none" stroke="rgb(179,179,179)" stroke-linejoin="round" d="M 3292,7340 L 3292,7190"/>
 <path fill="none" stroke="rgb(179,179,179)" stroke-linejoin="round" d="M 5035,7340 L 5035,7190"/>
 <path fill="none" stroke="rgb(179,179,179)" stroke-linejoin="round" d="M 5035,7340 L 5035,7190"/>
 <path fill="none" stroke="rgb(179,179,179)" stroke-linejoin="round" d="M 6778,7340 L 6778,7190"/>
 <path fill="none" stroke="rgb(179,179,179)" stroke-linejoin="round" d="M 6778,7340 L 6778,7190"/>
 <path fill="none" stroke="rgb(179,179,179)" stroke-linejoin="round" d="M 8520,7340 L 8520,7190"/>
 <path fill="none" stroke="rgb(179,179,179)" stroke-linejoin="round" d="M 8520,7340 L 8520,7190"/>
 <path fill="none" stroke="rgb(179,179,179)" stroke-linejoin="round" d="M 10263,7340 L 10263,7190"/>
 <path fill="none" stroke="rgb(179,179,179)" stroke-linejoin="round" d="M 10263,7340 L 10263,7190"/>
 <path fill="none" stroke="rgb(179,179,179)" stroke-linejoin="round" d="M 12006,7340 L 12006,7190"/>
 <path fill="none" stroke="rgb(179,179,179)" stroke-linejoin="round" d="M 12006,7340 L 12006,7190"/>
 <path fill="none" stroke="rgb(179,179,179)" stroke-linejoin="round" d="M 13749,7340 L 13749,7190"/>
 <path fill="none" stroke="rgb(179,179,179)" stroke-linejoin="round" d="M 13749,7340 L 13749,7190"/>
 <path fill="none" stroke="rgb(179,179,179)" stroke-linejoin="round" d="M 15492,7340 L 15492,7190"/>
 <path fill="none" stroke="rgb(179,179,179)" stroke-linejoin="round" d="M 15492,7340 L 15492,7190"/>
 <path fill="none" stroke="rgb(179,179,179)" stroke-linejoin="round" d="M 1550,7190 L 15492,7190"/>
 <path fill="rgb(0,69,134)" stroke="none" d="M 1550,2161 L 1550,1569 13705,1569 13705,2161 1550,2161 Z"/>
 <path fill="rgb(0,69,134)" stroke="none" d="M 1550,3344 L 1550,2753 6682,2753 6682,3344 1550,3344 Z"/>
 <path fill="rgb(0,69,134)" stroke="none" d="M 1550,4527 L 1550,3936 8259,3936 8259,4527 1550,4527 Z"/>
 <path fill="rgb(0,69,134)" stroke="none" d="M 1550,5710 L 1550,5119 6177,5119 6177,5710 1550,5710 Z"/>
 <path fill="rgb(0,69,134)" stroke="none" d="M 1550,6894 L 1550,6302 4800,6302 4800,6894 1550,6894 Z"/>
 <text class="TextShape"><tspan class="TextParagraph" font-family="Liberation Sans, sans-serif" font-size="353px" font-weight="400"><tspan class="TextPosition" x="400" y="6719"><tspan fill="rgb(0,0,0)" stroke="none">LPVC</tspan></tspan></tspan></text>
 <text class="TextShape"><tspan class="TextParagraph" font-family="Liberation Sans, sans-serif" font-size="353px" font-weight="400"><tspan class="TextPosition" x="321" y="5535"><tspan fill="rgb(0,0,0)" stroke="none">ZMBV</tspan></tspan></tspan></text>
 <text class="TextShape"><tspan class="TextParagraph" font-family="Liberation Sans, sans-serif" font-size="353px" font-weight="400"><tspan class="TextPosition" x="533" y="4352"><tspan fill="rgb(0,0,0)" stroke="none">MSU</tspan></tspan></tspan></text>
 <text class="TextShape"><tspan class="TextParagraph" font-family="Liberation Sans, sans-serif" font-size="353px" font-weight="400"><tspan class="TextPosition" x="400" y="3169"><tspan fill="rgb(0,0,0)" stroke="none">H.264</tspan></tspan></tspan></text>
 <text class="TextShape"><tspan class="TextParagraph" font-family="Liberation Sans, sans-serif" font-size="353px" font-weight="400"><tspan class="TextPosition" x="400" y="1985"><tspan fill="rgb(0,0,0)" stroke="none">H.265</tspan></tspan></tspan></text>
 <text class="TextShape"><tspan class="TextParagraph" font-family="Liberation Sans, sans-serif" font-size="353px" font-weight="400"><tspan class="TextPosition" x="1457" y="7758"><tspan fill="rgb(0,0,0)" stroke="none">0</tspan></tspan></tspan></text>
 <text class="TextShape"><tspan class="TextParagraph" font-family="Liberation Sans, sans-serif" font-size="353px" font-weight="400"><tspan class="TextPosition" x="3199" y="7758"><tspan fill="rgb(0,0,0)" stroke="none">2</tspan></tspan></tspan></text>
 <text class="TextShape"><tspan class="TextParagraph" font-family="Liberation Sans, sans-serif" font-size="353px" font-weight="400"><tspan class="TextPosition" x="4942" y="7758"><tspan fill="rgb(0,0,0)" stroke="none">4</tspan></tspan></tspan></text>
 <text class="TextShape"><tspan class="TextParagraph" font-family="Liberation Sans, sans-serif" font-size="353px" font-weight="400"><tspan class="TextPosition" x="6685" y="7758"><tspan fill="rgb(0,0,0)" stroke="none">6</tspan></tspan></tspan></text>
 <text class="TextShape"><tspan class="TextParagraph" font-family="Liberation Sans, sans-serif" font-size="353px" font-weight="400"><tspan class="TextPosition" x="8428" y="7758"><tspan fill="rgb(0,0,0)" stroke="none">8</tspan></tspan></tspan></text>
 <text class="TextShape"><tspan class="TextParagraph" font-family="Liberation Sans, sans-serif" font-size="353px" font-weight="400"><tspan class="TextPosition" x="10079" y="7758"><tspan fill="rgb(0,0,0)" stroke="none">10</tspan></tspan></tspan></text>
 <text class="TextShape"><tspan class="TextParagraph" font-family="Liberation Sans, sans-serif" font-size="353px" font-weight="400"><tspan class="TextPosition" x="11822" y="7758"><tspan fill="rgb(0,0,0)" stroke="none">12</tspan></tspan></tspan></text>
 <text class="TextShape"><tspan class="TextParagraph" font-family="Liberation Sans, sans-serif" font-size="353px" font-weight="400"><tspan class="TextPosition" x="13565" y="7758"><tspan fill="rgb(0,0,0)" stroke="none">14</tspan></tspan></tspan></text>
 <text class="TextShape"><tspan class="TextParagraph" font-family="Liberation Sans, sans-serif" font-size="353px" font-weight="400"><tspan class="TextPosition" x="15308" y="7758"><tspan fill="rgb(0,0,0)" stroke="none">16</tspan></tspan></tspan></text>
 <text class="TextShape"><tspan class="TextParagraph" font-family="Liberation Sans, sans-serif" font-size="459px" font-weight="400"><tspan class="TextPosition" x="6267" y="851"><tspan fill="rgb(0,0,0)" stroke="none">Compressed size</tspan></tspan></tspan></text>
 <text class="TextShape"><tspan class="TextParagraph" font-family="Liberation Sans, sans-serif" font-size="318px" font-weight="400"><tspan class="TextPosition" x="7325" y="8405"><tspan fill="rgb(0,0,0)" stroke="none">Size [MB]</tspan></tspan></tspan></text>
</svg>